<svg id="图层_1" data-name="图层 1" xmlns="http://www.w3.org/2000/svg" viewBox="0 0 4448 1300"><defs><style>.cls-1{fill:#585757;stroke:#585757;stroke-miterlimit:10;stroke-width:12.33px;}.cls-2{fill:#1fafd5;}.cls-3{fill:#eb5f33;}.cls-4{fill:#1b96d4;}</style></defs><path class="cls-1" d="M1579.09,419.75c111.11,0,198.46,94.47,199.05,210.94-.59,116.46-87.94,210.93-199.05,210.93-112.3,0-200.24-94.47-200.84-210.93C1378.85,514.22,1466.79,419.75,1579.09,419.75Zm0,392.76c91.51,0,168.75-80.22,169.34-181.82-.59-102.8-77.83-181.23-169.34-181.23-94.48,0-171.72,78.43-171.72,181.23C1407.37,732.29,1484.61,812.51,1579.09,812.51Z"/><path class="cls-1" d="M1867.87,763.78a12.67,12.67,0,0,1,18.42-1.78c30.9,25,82.59,54.07,136.66,53.48,36.25,0,68.93-10.7,91.51-27.33,23.17-16.64,35.65-38.63,35.65-61.8,0-23.77-11.29-41.59-33.87-57-22.58-14.86-55.85-26.15-96.26-33.87h-1.19c-38.62-7.13-72.49-17.83-98-35.06-25.55-16.64-42.78-41.59-42.78-72.49,0-31.49,17.23-58.82,43.37-77.84s61.21-30.3,100.42-30.3c54.67,0,95.67,26.74,128.35,48.13a13.26,13.26,0,0,1,3.56,18.42,12.56,12.56,0,0,1-17.82,3.56c-32.68-21.39-68.33-44-114.09-44-33.87,0-64.17,10.1-85,25-20.79,15.45-32.68,35.65-32.68,57,.6,20.8,10.1,36.25,30.9,50.51s51.7,24.36,89.13,31.49h1.19c41.59,7.72,78.43,19.61,105.76,38,27.34,17.82,45.76,45.16,45.76,78.43s-19,63-46.94,83.19-65.36,32.68-107,32.68c-63.58-.6-118.84-32.68-153.3-60A13.77,13.77,0,0,1,1867.87,763.78Z"/><path class="cls-1" d="M2592.18,485.11,2459.08,669.9a13.76,13.76,0,0,1-11.88,6.54H2446c-5.35,0-9.51-1.78-12.48-6.54l-133.1-184.2V827.36a14.45,14.45,0,0,1-14.26,14.26c-8.31,0-14.85-6.53-14.85-14.26v-385a13.52,13.52,0,0,1,5.94-11.29c0-.6.6-.6,1.19-1.19a15,15,0,0,1,20.2,3.56l148,205,147.36-205c4.15-6.53,13.66-7.72,20.2-3.56a30,30,0,0,1,4.16,4.75c1.19,2.38,2.37,5.35,2.37,7.73v385a14.45,14.45,0,0,1-14.26,14.26,14.07,14.07,0,0,1-14.26-14.26Z"/><path class="cls-1" d="M2927.3,440a14.46,14.46,0,0,1,14.26-14.26h213.91A14.08,14.08,0,0,1,3169.73,440c0,8.32-5.95,14.85-14.26,14.85H2956.41V619.4h174.1c7.72,0,14.26,6.53,14.26,14.85a14.46,14.46,0,0,1-14.26,14.26h-174.1v164h199.06c8.31,0,14.26,6.53,14.26,14.85a14.08,14.08,0,0,1-14.26,14.26h-215.1a14.26,14.26,0,0,1-13.07-14.26Z"/><path class="cls-1" d="M3488.21,785.18a138.42,138.42,0,0,1-111.71,56.44c-78.43,0-140.82-65.36-140.82-145,0-80.81,62.39-146.17,140.82-146.17,45.75,0,86.16,22.58,111.71,57V440c0-7.72,6.53-14.26,14.85-14.26A14.46,14.46,0,0,1,3517.32,440V827.36a14.45,14.45,0,0,1-14.26,14.26c-8.32,0-14.85-6.53-14.85-14.26Zm0-83.79v-9.5c-2.38-62.39-51.7-112.31-111.71-112.31-61.2,0-111.71,52.29-111.71,117.06,0,64.17,50.51,115.87,111.71,115.87C3436.51,812.51,3485.83,763.19,3488.21,701.39Z"/><path class="cls-1" d="M3889.87,818.45c0,75.46-61.2,136.66-137.25,136.66-21.39,0-41.6-5.34-60.61-13.66-5.94-4.16-9.51-12.48-5.94-19,3.56-7.72,11.88-10.69,19-6.53a105.41,105.41,0,0,0,47.54,10.69c60.6,0,108.73-48.13,108.73-108.14V782.8a131.86,131.86,0,0,1-108.73,57c-76.06,0-136.67-64.77-136.67-145,0-78.44,60.61-144.39,136.67-144.39,44.56,0,84.37,22.58,108.73,57V564.73c0-7.72,6.54-14.26,14.86-14.26,7.13,0,13.66,6.54,13.66,14.26Zm-28.52-123.59c0-64.77-48.72-115.87-108.73-115.87-59.42,0-108.15,51.1-108.15,115.87,0,65.36,48.73,117,108.15,117C3812.63,811.91,3861.35,760.22,3861.35,694.86Z"/><path class="cls-1" d="M3995,696.64c0-80.81,63-146.17,141.42-146.17,74.86,0,134.28,59.42,140.23,135.48v2.37c0,7.73-6.54,13.07-14.26,13.07H4023.56c3,63.58,52.88,111.71,112.9,111.71a109.46,109.46,0,0,0,93.88-52.88c4.16-7.13,13.07-8.32,19-4.75,6.54,4.75,8.92,13.07,4.76,20.2-25,39.81-68.34,66-117.65,66C4058,841.62,3995,776.26,3995,696.64Zm30.3-23.17h220.45c-9.51-54.67-55.86-94.48-109.33-94.48C4081.79,579,4036,618.21,4025.34,673.47Z"/><path class="cls-2" d="M668.27,146.88a83.14,83.14,0,0,0-82.71,76,429.75,429.75,0,0,0-115.2,39.26,15.45,15.45,0,0,0,14.05,27.51,398.73,398.73,0,0,1,104.28-36,83.06,83.06,0,1,0,79.58-106.79Zm0,125.93A42.87,42.87,0,1,1,711.13,230,42.86,42.86,0,0,1,668.27,272.81Z"/><path class="cls-2" d="M874.8,1016.05a15.45,15.45,0,0,0-20.82-6.62,398.81,398.81,0,0,1-106.13,36.89,83.14,83.14,0,1,0,3.13,30.82,429.36,429.36,0,0,0,117.21-40.28A15.43,15.43,0,0,0,874.8,1016.05Zm-206.53,96.87a42.87,42.87,0,1,1,42.86-42.87A42.87,42.87,0,0,1,668.27,1112.92Z"/><path class="cls-2" d="M430,294.24A83,83,0,0,0,308.17,406.93a429.55,429.55,0,0,0-53.84,109.43,15.44,15.44,0,0,0,29.39,9.5,398.77,398.77,0,0,1,48.54-99.49A83.09,83.09,0,0,0,430,294.24Zm-28.43,89.05a42.87,42.87,0,1,1,0-60.62A42.73,42.73,0,0,1,401.56,383.29Z"/><path class="cls-2" d="M1073.43,763.48a15.46,15.46,0,0,0-19.4,10,399.47,399.47,0,0,1-48.69,100.73A83.16,83.16,0,1,0,1029.22,894a429.39,429.39,0,0,0,54.25-111.13A15.44,15.44,0,0,0,1073.43,763.48ZM995.6,977.33a42.86,42.86,0,1,1,0-60.62A42.74,42.74,0,0,1,995.6,977.33Z"/><path class="cls-2" d="M272.68,729.39a83.26,83.26,0,1,0-30.77,3.36,429.59,429.59,0,0,0,39.44,116.13,15.45,15.45,0,0,0,27.51-14.06A399,399,0,0,1,272.68,729.39ZM205.36,650a42.86,42.86,0,1,1,42.86,42.86A42.86,42.86,0,0,1,205.36,650Z"/><path class="cls-2" d="M1096.19,567.33a429.42,429.42,0,0,0-40.09-116.28,15.45,15.45,0,0,0-27.44,14.2,398.77,398.77,0,0,1,36.67,105,83,83,0,1,0,30.86-2.91Zm-7.87,125.53A42.86,42.86,0,1,1,1131.19,650,42.86,42.86,0,0,1,1088.32,692.86Z"/><path class="cls-2" d="M545.1,1035.52A399.22,399.22,0,0,1,444.16,986c16.75-31.42,12.28-71.27-14.17-97.72a83.11,83.11,0,1,0-5,122,429.89,429.89,0,0,0,110.58,54.63,15.45,15.45,0,0,0,9.51-29.39ZM371.25,989.89a42.87,42.87,0,1,1,30.31-12.56A42.74,42.74,0,0,1,371.25,989.89Z"/><path class="cls-3" d="M1024,294.24a83,83,0,0,0-111.95-5,429.58,429.58,0,0,0-110-53.45,15.44,15.44,0,1,0-9.35,29.44,398.8,398.8,0,0,1,100,48.17c-17.15,31.51-12.78,71.71,13.84,98.34A83.07,83.07,0,1,0,1024,294.24ZM995.6,383.29a42.87,42.87,0,1,1,0-60.62A42.73,42.73,0,0,1,995.6,383.29Z"/><path class="cls-4" d="M668.27,441.74C553.25,441.74,460,535,460,650s93.24,208.26,208.26,208.26S876.54,765,876.54,650,783.29,441.74,668.27,441.74Zm0,362.13A153.88,153.88,0,1,1,822.15,650,153.87,153.87,0,0,1,668.27,803.87Z"/></svg>