<svg xmlns="http://www.w3.org/2000/svg" viewBox="0 0 4448 1300"><defs><style>.cls-1{fill:#248dc5;}.cls-2{fill:#1fafd5;}.cls-3{fill:#eb5f33;}.cls-4{fill:#1b96d4;}</style></defs><g id="图层_2" data-name="图层 2"><path class="cls-1" d="M1783.24,630.25q0,49.86-16.19,92.25t-45.31,74.13a203.08,203.08,0,0,1-69.27,49.2q-40.15,17.48-87.4,17.48-47.91,0-87.71-17.48a203.77,203.77,0,0,1-68.95-49.2q-29.13-31.71-45.31-74.13t-16.19-92.25q0-50.49,16.19-92.89t45.31-73.8a205.81,205.81,0,0,1,68.95-48.88q39.81-17.48,87.71-17.48,47.25,0,87.4,17.48a205.1,205.1,0,0,1,69.27,48.88q29.13,31.4,45.31,73.8T1783.24,630.25Zm-55.68,0q0-53.07-21-93.87t-57.29-64.08Q1613,449,1565.07,449t-84.48,23.31Q1444,495.6,1423.3,536.38t-20.71,93.87q0,52.44,20.71,93.55t57.29,64.41q36.57,23.31,84.48,23.31t84.16-23.31q36.26-23.31,57.29-64.41T1727.56,630.25Z"/><path class="cls-1" d="M1988.45,863.31q-47.92,0-84.16-14.25t-69.92-45.31a41.72,41.72,0,0,1-7.44-10,25.16,25.16,0,0,1-2.91-12,26.48,26.48,0,0,1,7.44-18.45,24.07,24.07,0,0,1,18.45-8.1q9.06,0,16.19,7.13,25.25,24.6,54.7,37.54t66.35,12.95q28.49,0,51.47-9.06t36.57-25.25a56.59,56.59,0,0,0,13.6-37.55q-.64-25.87-15.21-42.72t-40.14-28.16q-25.57-11.33-59.23-19.1a361.12,361.12,0,0,1-54.71-17.48q-24.93-10.35-43-25.57a105.3,105.3,0,0,1-28.16-36.9q-10-21.69-10-50.82,0-36.9,19.42-64.74t53.73-43q34.3-15.2,79-15.21a215.4,215.4,0,0,1,74.77,12.95q35.28,13,56.65,35.6,12.93,12.31,12.94,24,0,9.71-8.09,17.8t-18.45,8.09a19,19,0,0,1-12.95-5.18,112.43,112.43,0,0,0-27.83-22,167.1,167.1,0,0,0-36.9-15.54,143.62,143.62,0,0,0-40.14-5.82q-29.79,0-52.44,8.74t-35.28,24.6q-12.62,15.87-12.62,37.87,0,24.6,14.24,40.46t38.2,25.89a411,411,0,0,0,53.08,17.81,522.78,522.78,0,0,1,58.59,17.8q26.85,10,46.28,24.92A100.27,100.27,0,0,1,2130.55,683q10.68,23,10.68,56.65,0,35.61-20.07,63.44t-54.7,43.7Q2031.81,862.66,1988.45,863.31Z"/><path class="cls-1" d="M2241.56,403a29.71,29.71,0,0,1,12.63,3.23,28.31,28.31,0,0,1,10.68,8.42l171.55,259.59-22.66-.64,173.5-258.95q8.4-12.29,22-11.65a28.72,28.72,0,0,1,18.12,7.77q7.77,7.13,7.77,18.77V830.29a25.56,25.56,0,0,1-7.77,18.77,28.15,28.15,0,0,1-38.84,0,25.56,25.56,0,0,1-7.77-18.77V478.77L2597,482l-152.78,232.4a36.86,36.86,0,0,1-9.39,7.77,22,22,0,0,1-11.33,3.24,23.78,23.78,0,0,1-11.65-3.24,35,35,0,0,1-9.71-7.77L2251.27,482l13.6-16.84V830.29a26.81,26.81,0,0,1-7.12,18.77,23.54,23.54,0,0,1-18.13,7.77q-11,0-17.8-7.77a27.53,27.53,0,0,1-6.8-18.77V429.57a26.49,26.49,0,0,1,7.45-18.45Q2229.9,403,2241.56,403Z"/><path class="cls-1" d="M2926.47,403.67h230.46a26.78,26.78,0,0,1,18.77,7.13,23.51,23.51,0,0,1,7.77,18.12q0,11-7.77,17.8a27.48,27.48,0,0,1-18.77,6.8H2948.48l5.82-11V606.3l-6.47-7.12h180a26.83,26.83,0,0,1,18.77,7.12,23.51,23.51,0,0,1,7.77,18.13q0,11-7.77,17.8a27.54,27.54,0,0,1-18.77,6.8h-178l4.53-5.83V810.87l-3.88-4.53h206.51a25.56,25.56,0,0,1,18.77,7.77q7.77,7.75,7.77,17.47a23.48,23.48,0,0,1-7.77,18.13,26.77,26.77,0,0,1-18.77,7.12H2926.47a24.48,24.48,0,0,1-18.45-7.77,26.11,26.11,0,0,1-7.45-18.77V429.57a25.45,25.45,0,0,1,25.9-25.9Z"/><path class="cls-1" d="M3516.87,377.78q11.65,0,18.77,7.44a25.67,25.67,0,0,1,7.12,18.45V830.29a26.15,26.15,0,0,1-7.44,18.77,25.79,25.79,0,0,1-36.9,0,26.11,26.11,0,0,1-7.45-18.77v-61.5l12.3-4.53q0,15.54-9.38,32.69t-26.54,32a151,151,0,0,1-39.82,24.59,123.5,123.5,0,0,1-49.2,9.72q-44,0-79-22.66T3244,778.5q-20.39-39.48-20.39-90,0-51.13,20.39-90.64t55-61.82q34.62-22.34,78-22.33a141.3,141.3,0,0,1,92.57,33.66q18.12,15.54,28.16,34.31t10,37.55L3491,615.36V403.67a25.43,25.43,0,0,1,25.9-25.89ZM3383.51,815.4q33,0,57.62-16.51T3480,753.58q14.24-28.8,14.24-65.06,0-36.9-14.24-65.39t-39.17-45q-24.93-16.51-57.29-16.51-31.73,0-56.64,16.51t-39.17,45q-14.25,28.5-14.24,65.39,0,35.61,14.24,64.41t39.17,45.64Q3351.79,815.42,3383.51,815.4Z"/><path class="cls-1" d="M3762.86,513.73q28.48,0,52.44,9.38a150,150,0,0,1,41.76,24.28q17.79,14.9,27.83,31.07t10,30.43L3882,601.12V544.8a25.43,25.43,0,0,1,25.9-25.89q11.64,0,18.77,7.44a25.71,25.71,0,0,1,7.12,18.45V828.35q0,53.07-22.33,88a139.66,139.66,0,0,1-59.89,52.44Q3814,986.31,3768,986.31q-19.41,0-43.05-5.18a253.3,253.3,0,0,1-41.75-12.63q-18.13-7.44-22.66-15.21-9.7-6.48-12-14.57a18.08,18.08,0,0,1,2.27-15.21q6.47-9.07,15.54-9.06t23.3,5.82q6.47,2,18.78,6.48a221.42,221.42,0,0,0,28.48,8.09,147.52,147.52,0,0,0,31.72,3.56q55,0,84.16-28.81T3882,833.53V773.32l7.12,3.24a85.53,85.53,0,0,1-15.53,33.66,125.24,125.24,0,0,1-28.81,27.51,142.81,142.81,0,0,1-38.2,18.78,137.24,137.24,0,0,1-42.4,6.8q-45.32,0-81.25-22.66t-57-62.15q-21-39.48-21-90,0-51.13,21-90.64t56.64-61.82Q3718.19,513.72,3762.86,513.73Zm7.13,47.9q-33.67,0-59.56,16.51t-40.79,45q-14.89,28.5-14.89,65.39,0,35.61,14.89,64.41t40.79,45.64q25.88,16.84,59.56,16.83t59.55-16.51q25.89-16.5,40.79-45t14.89-65.38q0-37.54-14.89-66t-40.79-44.66Q3803.65,561.64,3770,561.63Z"/><path class="cls-1" d="M4155.17,863.31q-51.8,0-90.63-22a154.6,154.6,0,0,1-60.2-60.53q-21.37-38.52-21.37-89,0-56.31,22.34-96.13t57.94-60.85q35.6-21,75.74-21a154.74,154.74,0,0,1,57.94,11,150.68,150.68,0,0,1,49.2,32,158.45,158.45,0,0,1,34.63,50.49q12.94,29.46,13.6,65.71a25.07,25.07,0,0,1-8.42,17.48,26,26,0,0,1-18.13,7.12H4012.1l-11.65-44.67h249.24L4239.33,662V647.73q-1.93-26.54-17.16-45.64A103.3,103.3,0,0,0,4185,572.64a106.82,106.82,0,0,0-46-10.36,114.14,114.14,0,0,0-38.52,6.8,91.54,91.54,0,0,0-34.31,22q-15.22,15.21-24.28,39.16t-9.06,57.62q0,37.54,15.21,66a114.87,114.87,0,0,0,42.41,45q27.18,16.51,62.79,16.51,23.31,0,40.14-5.83a109.39,109.39,0,0,0,28.8-14.56,142.38,142.38,0,0,0,20.4-17.8q8.4-5.84,16.83-5.83a22.09,22.09,0,0,1,22,22q0,11-10.36,19.42-18.78,20.07-49.52,35.28A147.69,147.69,0,0,1,4155.17,863.31Z"/><path class="cls-2" d="M656.77,146.88a83.13,83.13,0,0,0-82.71,76,429.7,429.7,0,0,0-115.21,39.26,15.45,15.45,0,0,0,14.06,27.51,398.6,398.6,0,0,1,104.28-36,83.06,83.06,0,1,0,79.58-106.79Zm0,125.93A42.87,42.87,0,1,1,699.63,230,42.86,42.86,0,0,1,656.77,272.81Z"/><path class="cls-2" d="M863.3,1016.05a15.45,15.45,0,0,0-20.82-6.62,398.75,398.75,0,0,1-106.14,36.89,83.11,83.11,0,1,0,3.14,30.82,429.47,429.47,0,0,0,117.21-40.28A15.44,15.44,0,0,0,863.3,1016.05Zm-206.53,96.87a42.87,42.87,0,1,1,42.86-42.87A42.87,42.87,0,0,1,656.77,1112.92Z"/><path class="cls-2" d="M418.49,294.24A83,83,0,0,0,296.66,406.93a429.55,429.55,0,0,0-53.84,109.43,15.45,15.45,0,0,0,29.4,9.5,398.42,398.42,0,0,1,48.54-99.49,83.09,83.09,0,0,0,97.73-132.13Zm-28.43,89.05a42.87,42.87,0,1,1,0-60.62A42.73,42.73,0,0,1,390.06,383.29Z"/><path class="cls-2" d="M1061.92,763.48a15.45,15.45,0,0,0-19.39,10,399.16,399.16,0,0,1-48.7,100.73A83.11,83.11,0,1,0,1017.72,894,429.39,429.39,0,0,0,1072,782.87,15.44,15.44,0,0,0,1061.92,763.48ZM984.1,977.33a42.86,42.86,0,1,1,0-60.62A42.74,42.74,0,0,1,984.1,977.33Z"/><path class="cls-2" d="M261.18,729.39a83.27,83.27,0,1,0-30.77,3.36,429.91,429.91,0,0,0,39.43,116.13,15.45,15.45,0,0,0,27.51-14.06A399,399,0,0,1,261.18,729.39ZM193.85,650a42.87,42.87,0,1,1,42.87,42.86A42.86,42.86,0,0,1,193.85,650Z"/><path class="cls-2" d="M1084.69,567.33a429.44,429.44,0,0,0-40.1-116.28,15.44,15.44,0,0,0-27.43,14.2,398.75,398.75,0,0,1,36.66,105,83,83,0,1,0,30.87-2.91Zm-7.87,125.53A42.86,42.86,0,1,1,1119.68,650,42.86,42.86,0,0,1,1076.82,692.86Z"/><path class="cls-2" d="M533.59,1035.52A399.16,399.16,0,0,1,432.66,986c16.75-31.42,12.28-71.27-14.17-97.72a83.11,83.11,0,1,0-5,122,430,430,0,0,0,110.59,54.63,15.44,15.44,0,1,0,9.5-29.39ZM359.75,989.89a42.87,42.87,0,1,1,30.31-12.56A42.74,42.74,0,0,1,359.75,989.89Z"/><path class="cls-3" d="M1012.53,294.24a83,83,0,0,0-112-5,429.42,429.42,0,0,0-110-53.45,15.44,15.44,0,0,0-9.35,29.44,398.64,398.64,0,0,1,100,48.17c-17.14,31.51-12.78,71.71,13.85,98.34a83.07,83.07,0,0,0,117.48-117.48ZM984.1,383.29a42.87,42.87,0,1,1,0-60.62A42.73,42.73,0,0,1,984.1,383.29Z"/><path class="cls-4" d="M656.77,441.74C541.75,441.74,448.5,535,448.5,650s93.25,208.26,208.27,208.26S865,765,865,650,771.79,441.74,656.77,441.74Zm0,362.13A153.88,153.88,0,1,1,810.64,650,153.87,153.87,0,0,1,656.77,803.87Z"/></g></svg>